HIERARCHY
ROOT hip
{
  OFFSET 0 0 0
  CHANNELS 6 Xposition Yposition Zposition Zrotation Yrotation Xrotation
  JOINT abdomen
  {
    OFFSET 0 20.6881 -0.73152
    CHANNELS 3 Zrotation Xrotation Yrotation
    JOINT chest
    {
      OFFSET 0 11.7043 -0.48768
      CHANNELS 3 Zrotation Xrotation Yrotation
      JOINT neck
      {
        OFFSET 0 22.1894 -2.19456
        CHANNELS 3 Zrotation Xrotation Yrotation
        JOINT head
        {
          OFFSET -0.24384 7.07133 1.2192
          CHANNELS 3 Zrotation Xrotation Yrotation
          JOINT leftEye
          {
            OFFSET 4.14528 8.04674 8.04672
            CHANNELS 3 Zrotation Xrotation Yrotation
            End Site
            {
              OFFSET 1 0 0
            }
          }
          JOINT rightEye
          {
            OFFSET -3.6576 8.04674 8.04672
            CHANNELS 3 Zrotation Xrotation Yrotation
            End Site
            {
              OFFSET 1 0 0
            }
          }
        }
      }
      JOINT rCollar
      {
        OFFSET -2.68224 19.2634 -4.8768
        CHANNELS 3 Zrotation Xrotation Yrotation
        JOINT rShldr
        {
          OFFSET -8.77824 -1.95073 1.46304
          CHANNELS 3 Zrotation Xrotation Yrotation
          JOINT rForeArm
          {
            OFFSET -28.1742 -1.7115 0.48768
            CHANNELS 3 Zrotation Xrotation Yrotation
            JOINT rHand
            {
              OFFSET -22.5879 0.773209 7.07136
              CHANNELS 3 Zrotation Xrotation Yrotation
              JOINT rThumb1
              {
                OFFSET -1.2192 -0.487915 3.41376
                CHANNELS 3 Zrotation Xrotation Yrotation
                JOINT rThumb2
                {
                  OFFSET -3.37035 -0.52449 3.41376
                  CHANNELS 3 Zrotation Xrotation Yrotation
                  End Site
                  {
                    OFFSET -1.78271 -1.18214 1.43049
                  }
                }
              }
              JOINT rIndex1
              {
                OFFSET -7.75947 0.938293 5.60832
                CHANNELS 3 Zrotation Xrotation Yrotation
                JOINT rIndex2
                {
                  OFFSET -2.54057 -0.884171 1.56538
                  CHANNELS 3 Zrotation Xrotation Yrotation
                  End Site
                  {
                    OFFSET -1.62519 -0.234802 1.16502
                  }
                }
              }
              JOINT rMid1
              {
                OFFSET -8.24714 1.18213 3.41376
                CHANNELS 3 Zrotation Xrotation Yrotation
                JOINT rMid2
                {
                  OFFSET -3.10165 -0.590103 1.0647
                  CHANNELS 3 Zrotation Xrotation Yrotation
                  End Site
                  {
                    OFFSET -2.48547 -0.328903 0.83742
                  }
                }
              }
              JOINT rRing1
              {
                OFFSET -8.82822 0.546677 1.51678
                CHANNELS 3 Zrotation Xrotation Yrotation
                JOINT rRing2
                {
                  OFFSET -2.60934 -0.819778 -0.0198488
                  CHANNELS 3 Zrotation Xrotation Yrotation
                  End Site
                  {
                    OFFSET -2.33842 -0.294052 0.168128
                  }
                }
              }
              JOINT rPinky1
              {
                OFFSET -8.27202 -0.0477905 -0.4584
                CHANNELS 3 Zrotation Xrotation Yrotation
                JOINT rPinky2
                {
                  OFFSET -1.82734 -0.647385 -0.700984
                  CHANNELS 3 Zrotation Xrotation Yrotation
                  End Site
                  {
                    OFFSET -1.69225 -0.51767 -0.607171
                  }
                }
              }
            }
          }
        }
      }
      JOINT lCollar
      {
        OFFSET 2.68224 19.2634 -4.8768
        CHANNELS 3 Zrotation Xrotation Yrotation
        JOINT lShldr
        {
          OFFSET 8.77824 -1.95073 1.46304
          CHANNELS 3 Zrotation Xrotation Yrotation
          JOINT lForeArm
          {
            OFFSET 28.1742 -1.7115 0.48768
            CHANNELS 3 Zrotation Xrotation Yrotation
            JOINT lHand
            {
              OFFSET 22.5879 0.773209 7.07136
              CHANNELS 3 Zrotation Xrotation Yrotation
              JOINT lThumb1
              {
                OFFSET 1.2192 -0.487915 3.41376
                CHANNELS 3 Zrotation Xrotation Yrotation
                JOINT lThumb2
                {
                  OFFSET 3.37035 -0.52449 3.41376
                  CHANNELS 3 Zrotation Xrotation Yrotation
                  End Site
                  {
                    OFFSET 1.78271 -1.18214 1.43049
                  }
                }
              }
              JOINT lIndex1
              {
                OFFSET 7.75947 0.938293 5.60832
                CHANNELS 3 Zrotation Xrotation Yrotation
                JOINT lIndex2
                {
                  OFFSET 2.54057 -0.884171 1.56538
                  CHANNELS 3 Zrotation Xrotation Yrotation
                  End Site
                  {
                    OFFSET 1.62519 -0.234802 1.16502
                  }
                }
              }
              JOINT lMid1
              {
                OFFSET 8.24714 1.18213 3.41376
                CHANNELS 3 Zrotation Xrotation Yrotation
                JOINT lMid2
                {
                  OFFSET 3.10165 -0.590103 1.0647
                  CHANNELS 3 Zrotation Xrotation Yrotation
                  End Site
                  {
                    OFFSET 2.48547 -0.328903 0.83742
                  }
                }
              }
              JOINT lRing1
              {
                OFFSET 8.82822 0.546677 1.51678
                CHANNELS 3 Zrotation Xrotation Yrotation
                JOINT lRing2
                {
                  OFFSET 2.60934 -0.819778 -0.0198488
                  CHANNELS 3 Zrotation Xrotation Yrotation
                  End Site
                  {
                    OFFSET 2.33842 -0.294052 0.168128
                  }
                }
              }
              JOINT lPinky1
              {
                OFFSET 8.27202 -0.0477905 -0.4584
                CHANNELS 3 Zrotation Xrotation Yrotation
                JOINT lPinky2
                {
                  OFFSET 1.82734 -0.647385 -0.700984
                  CHANNELS 3 Zrotation Xrotation Yrotation
                  End Site
                  {
                    OFFSET 1.69225 -0.51767 -0.607171
                  }
                }
              }
            }
          }
        }
      }
    }
  }
  JOINT rButtock
  {
    OFFSET -8.77824 4.35084 1.2192
    CHANNELS 3 Zrotation Xrotation Yrotation
    JOINT rThigh
    {
      OFFSET 0 -1.70687 -2.19456
      CHANNELS 3 Zrotation Xrotation Yrotation
      JOINT rShin
      {
        OFFSET 0 -36.8199 0.73152
        CHANNELS 3 Zrotation Xrotation Yrotation
        JOINT rFoot
        {
          OFFSET 0.73152 -45.1104 -5.12064
          CHANNELS 3 Zrotation Xrotation Yrotation
          End Site
          {
            OFFSET -1.1221 -3.69964 12.103
          }
        }
      }
    }
  }
  JOINT lButtock
  {
    OFFSET 8.77824 4.35084 1.2192
    CHANNELS 3 Zrotation Xrotation Yrotation
    JOINT lThigh
    {
      OFFSET 0 -1.70687 -2.19456
      CHANNELS 3 Zrotation Xrotation Yrotation
      JOINT lShin
      {
        OFFSET 0 -36.8199 0.73152
        CHANNELS 3 Zrotation Xrotation Yrotation
        JOINT lFoot
        {
          OFFSET -0.73152 -45.1104 -5.12064
          CHANNELS 3 Zrotation Xrotation Yrotation
          End Site
          {
            OFFSET 1.1221 -3.69964 12.103
          }
        }
      }
    }
  }
}
MOTION
Frames:	4
Frame Time:	0.03333
-109.8259 72.1088 67.4774 -3.84837 -35.475117 5.962506 -12.093434 -1.939637 98.976752 -9.487009 3.510545 -93.544144 -5.478961 6.540129 -84.013462 10.20122 25.165988 93.090791 0.005285 0.0 8.8e-05 -0.001045 0.0 -0.00291 2.530237 -18.881281 -3.792948 -17.68941 20.446464 7.895206 -64.200695 45.629254 28.269861 101.063459 -74.219657 83.326529 -19.688324 17.543663 5.975825 -107.603053 -4.936346 95.355262 -162.784173 -37.707176 122.637487 22.068849 -18.170376 -10.64729 -8.305063 20.652485 5.562199 -15.985216 40.008401 12.831701 0.003371 1.77131 0.557014 -23.516196 72.951735 36.402279 -138.441043 -6.229709 -135.659679 -9.692649 -24.088257 -12.467929 -3.126437 -25.073049 4.933547 -19.853499 1.056094 -6.144 -29.426044 51.607809 -91.173514 16.439899 28.036678 -2.462715 -178.338709 -19.018413 -88.988159 49.53214 -11.067934 -5.014828 153.452972 -21.067205 -121.746037 -178.551637 -48.84981 -112.642438 160.67383 -6.667755 -143.245104 166.990345 -15.99412 -143.776829 75.673076 -72.11569 92.82908 149.800487 -27.270833 179.793438 146.18581 15.332214 142.711189 146.454938 8.35712 140.881595 179.995597 75.749949 0.003622 179.012378 49.355603 0.736625 45.184893 50.983866 20.662393 62.503379 -71.168001 -40.287548 0.007132 -0.000307 0.005349 23.903558 -33.164029 -140.985401 -26.665632 -62.322275 156.337773 -94.061878 -5.577704 18.913549
-111.3013 71.5099 68.189 -2.028799 -40.389948 5.44952 -9.546858 -1.300199 -82.316224 10.254002 -7.534575 89.318424 -4.688943 8.424756 -96.952757 5.864871 25.772351 108.584561 -0.001629 0.0 -0.002878 0.004562 -0.0 -0.000188 2.459997 -18.216341 -3.669137 167.050166 -40.034282 172.997175 177.033185 62.595827 -148.151281 -9.10885 15.414172 -0.471912 4.530762 -4.514144 -0.521225 8.76217 -15.43198 -10.377391 22.19754 -39.384186 -5.824248 -5.529841 27.026998 6.773336 -36.03528 51.723307 29.832265 3.602529 -0.581147 -0.007196 -0.007617 3.561057 1.119003 -156.756579 -42.772075 177.038297 -156.452277 54.007303 -150.152743 -24.5938 -39.175693 -25.186164 159.220177 -48.028412 -170.415688 84.360558 86.348674 -90.252108 69.378671 -29.060017 -128.468925 -84.365256 -74.535954 -67.403255 -9.389543 -9.381302 0.682114 -1.630355 -6.557417 8.118569 152.103951 -18.556544 -121.368716 4.923584 28.1542 1.8686 0.056357 0.168071 -0.032289 -29.356263 -60.225535 -6.395375 0.008597 -0.831135 0.262683 -11.263171 -15.761146 1.938465 15.851523 -28.702977 15.128483 145.729057 8.303983 142.696807 -179.984228 75.750096 -0.010792 174.402106 41.405011 -171.570327 -53.790305 -52.307711 173.246652 -138.753272 1.208274 50.208397 -179.997986 75.750873 -0.002078 -155.360432 43.085828 -17.032691 -46.844149 57.701892 -51.878274 145.312958 -23.5548 -112.886508
-113.3373 71.1769 68.69420000000001 -0.229855 -44.567081 4.919135 -11.566789 -1.823999 -81.160266 10.275747 -7.387614 88.04495 -4.761515 7.594633 -91.322904 7.992098 25.47664 103.985628 -0.005539 0.0 -0.000401 0.000366 0.0 0.001043 -153.052858 10.008127 158.672026 -134.524836 21.259764 164.824442 -91.322521 46.135462 79.312159 45.671906 -69.634215 30.843115 93.028675 -51.083575 40.500596 -155.81167 -10.796539 119.103722 -148.886779 -12.609717 120.244498 -118.726983 45.976319 95.900424 -0.22022 0.638407 0.122223 2.833876 1.184227 0.135294 -70.378114 -72.132046 -87.278805 -67.467807 83.25727 85.218467 -87.574999 -50.205563 -85.929366 3.416722 0.013353 -1.044563 44.040278 64.186909 -46.710651 -156.450044 -65.301895 -138.076878 -22.195721 52.527383 -86.046188 13.774787 30.566172 -2.15865 67.03508 37.762165 -34.643712 100.777101 -7.910007 -76.339985 0.328515 0.529594 -0.186509 83.894052 47.593216 -65.610832 10.977186 25.789482 -7.641001 4.87076 21.331444 -4.437088 145.120402 0.309905 179.226116 152.394342 -25.06389 175.330653 146.205163 15.406455 142.729968 -56.500867 82.257277 19.334637 0.000567 -0.000447 0.000284 -8.563909 -36.496705 -5.255484 42.278589 67.096722 -140.736207 141.464205 57.7096 -50.947202 -0.000676 0.001279 -0.000676 16.748894 -26.788115 92.93343 60.189114 26.752414 -145.831273 117.256459 44.032676 -44.969931
-115.8895 70.8542 69.1551 -0.384901 -47.284071 5.539046 -16.489374 -2.57855 92.404843 -10.703148 1.711099 -87.908836 0.215227 13.614117 -138.286876 -6.730913 24.118018 156.052028 0.001389 0.0 0.000373 -0.004294 -0.0 0.001096 -8.336319 31.806127 9.769144 -43.223477 -69.279148 -44.907124 169.149439 -15.407712 113.622785 -178.737313 3.322694 143.3236 -78.03133 38.689204 42.412132 -87.008703 -3.540717 66.599175 -2.685284 4.226975 1.584033 -113.78743 38.293639 88.737826 -15.31796 32.809363 11.206835 -171.980407 -31.365301 144.061988 -0.02072 -1.725056 -0.543138 -6.486354 62.757482 19.315294 -165.209656 77.033379 -149.819307 -141.884145 -5.942673 -137.201441 156.787204 -12.854897 -163.726307 172.959581 -0.595981 -173.193073 -0.491678 -2.098 -95.411077 7.652174 16.255934 0.266918 12.926613 12.051314 -3.310834 -8.121829 -7.236027 -2.199598 12.942407 17.784309 -8.597549 -15.095981 -8.208901 1.497679 169.091692 -33.24718 -145.374166 6.11798 23.193262 -5.408954 145.119417 0.309648 179.226649 71.287429 -78.003538 92.77455 147.594954 20.11044 143.924612 11.115583 -25.298641 13.314457 179.985563 75.748423 0.009877 171.400508 35.632084 0.0 48.507964 58.83034 79.15119 5.998633 31.509448 -137.407923 179.994459 75.750907 0.004889 -156.899903 46.136199 149.391381 53.47903 -45.176209 164.452347 26.352941 -78.231098 119.22402
